<mxfile host="Electron" agent="Mozilla/5.0 (X11; Linux x86_64) AppleWebKit/537.36 (KHTML, like Gecko) draw.io/28.2.5 Chrome/138.0.7204.251 Electron/37.6.1 Safari/537.36" version="28.2.5">
  <diagram name="第 1 页" id="A2wYnKDMZFF023bxGnZ8">
    <mxGraphModel dx="1367" dy="1212" grid="1" gridSize="10" guides="1" tooltips="1" connect="1" arrows="1" fold="1" page="1" pageScale="1" pageWidth="827" pageHeight="1169" math="0" shadow="0">
      <root>
        <mxCell id="0" />
        <mxCell id="1" parent="0" />
        <mxCell id="b81MjtMypsDZj9TweXg5-38" value="" style="rounded=0;whiteSpace=wrap;html=1;" parent="1" vertex="1">
          <mxGeometry x="940" y="50" width="2270" height="670" as="geometry" />
        </mxCell>
        <mxCell id="tHCy42ypWK_uThyhraDl-21" value="ConstructorResolver" style="shape=umlLifeline;perimeter=lifelinePerimeter;whiteSpace=wrap;html=1;container=1;dropTarget=0;collapsible=0;recursiveResize=0;outlineConnect=0;portConstraint=eastwest;newEdgeStyle={&quot;curved&quot;:0,&quot;rounded&quot;:0};fontSize=20;fillColor=#dae8fc;strokeColor=#6c8ebf;strokeWidth=2;" parent="1" vertex="1">
          <mxGeometry x="1200" y="83.5" width="360" height="616.5" as="geometry" />
        </mxCell>
        <mxCell id="tHCy42ypWK_uThyhraDl-22" value="" style="html=1;whiteSpace=wrap;fontSize=20;fillColor=#dae8fc;strokeColor=#6c8ebf;" parent="1" vertex="1">
          <mxGeometry x="1010" y="200" width="740" height="430" as="geometry" />
        </mxCell>
        <mxCell id="tHCy42ypWK_uThyhraDl-32" value="&lt;span style=&quot;text-align: left;&quot;&gt;autowireConstructor&lt;/span&gt;&lt;span&gt;()：构造函数注入&lt;/span&gt;" style="text;html=1;align=center;verticalAlign=middle;whiteSpace=wrap;rounded=0;fontStyle=0;fontColor=#000000;fontSize=20;" parent="1" vertex="1">
          <mxGeometry x="1190.63" y="210" width="378.75" height="30" as="geometry" />
        </mxCell>
        <mxCell id="tHCy42ypWK_uThyhraDl-40" value="AutowireUtils.sortConstructors()：按照参数数量降序排序" style="html=1;whiteSpace=wrap;fontSize=20;fillColor=#dae8fc;strokeColor=#6c8ebf;" parent="1" vertex="1">
          <mxGeometry x="1020" y="370" width="720" height="44" as="geometry" />
        </mxCell>
        <mxCell id="XXb4EB46vbzF-yNc4gj--1" value="创建BeanWrapperImpl，并初始化" style="html=1;whiteSpace=wrap;fontSize=20;fillColor=#dae8fc;strokeColor=#6c8ebf;strokeWidth=1;" parent="1" vertex="1">
          <mxGeometry x="1020" y="250" width="720" height="40" as="geometry" />
        </mxCell>
        <mxCell id="b81MjtMypsDZj9TweXg5-2" value="尝试从缓存中获取构造函数和参数" style="html=1;whiteSpace=wrap;fontSize=20;fillColor=#dae8fc;strokeColor=#6c8ebf;strokeWidth=1;" parent="1" vertex="1">
          <mxGeometry x="1020" y="310" width="720" height="40" as="geometry" />
        </mxCell>
        <mxCell id="b81MjtMypsDZj9TweXg5-3" value="createArgumentArray()：解析参数依赖，获取依赖Bean" style="html=1;whiteSpace=wrap;fontSize=20;fillColor=#dae8fc;strokeColor=#6c8ebf;" parent="1" vertex="1">
          <mxGeometry x="1020" y="432" width="720" height="40" as="geometry" />
        </mxCell>
        <mxCell id="b81MjtMypsDZj9TweXg5-10" value="缓存解析结果，便于下次使用" style="html=1;whiteSpace=wrap;fontSize=20;fillColor=#dae8fc;strokeColor=#6c8ebf;strokeWidth=1;" parent="1" vertex="1">
          <mxGeometry x="1020" y="492" width="720" height="40" as="geometry" />
        </mxCell>
        <mxCell id="b81MjtMypsDZj9TweXg5-17" value="创建实例" style="html=1;whiteSpace=wrap;fontSize=20;fillColor=#dae8fc;strokeColor=#6c8ebf;" parent="1" vertex="1">
          <mxGeometry x="1020" y="564" width="720" height="40" as="geometry" />
        </mxCell>
        <mxCell id="b81MjtMypsDZj9TweXg5-23" value="SimpleInstantiationStrategy" style="shape=umlLifeline;perimeter=lifelinePerimeter;whiteSpace=wrap;html=1;container=1;dropTarget=0;collapsible=0;recursiveResize=0;outlineConnect=0;portConstraint=eastwest;newEdgeStyle={&quot;curved&quot;:0,&quot;rounded&quot;:0};fontSize=20;fillColor=#dae8fc;strokeColor=#6c8ebf;strokeWidth=2;" parent="1" vertex="1">
          <mxGeometry x="1855" y="81.5" width="380" height="608.5" as="geometry" />
        </mxCell>
        <mxCell id="b81MjtMypsDZj9TweXg5-26" value="instantiate()" style="html=1;whiteSpace=wrap;fontSize=20;fillColor=#dae8fc;strokeColor=#6c8ebf;strokeWidth=1;" parent="1" vertex="1">
          <mxGeometry x="1880" y="565" width="330" height="40" as="geometry" />
        </mxCell>
        <mxCell id="b81MjtMypsDZj9TweXg5-27" value="" style="endArrow=classic;html=1;rounded=0;exitX=1;exitY=0.5;exitDx=0;exitDy=0;entryX=0;entryY=0.5;entryDx=0;entryDy=0;" parent="1" source="b81MjtMypsDZj9TweXg5-17" target="b81MjtMypsDZj9TweXg5-26" edge="1">
          <mxGeometry width="50" height="50" relative="1" as="geometry">
            <mxPoint x="2010" y="700" as="sourcePoint" />
            <mxPoint x="2060" y="650" as="targetPoint" />
          </mxGeometry>
        </mxCell>
        <mxCell id="2h2Sp6AkXZJmoCBJIqNE-1" value="BeanUtils" style="shape=umlLifeline;perimeter=lifelinePerimeter;whiteSpace=wrap;html=1;container=1;dropTarget=0;collapsible=0;recursiveResize=0;outlineConnect=0;portConstraint=eastwest;newEdgeStyle={&quot;curved&quot;:0,&quot;rounded&quot;:0};fontSize=20;fillColor=#dae8fc;strokeColor=#6c8ebf;strokeWidth=2;" vertex="1" parent="1">
          <mxGeometry x="2310" y="79.5" width="380" height="610.5" as="geometry" />
        </mxCell>
        <mxCell id="2h2Sp6AkXZJmoCBJIqNE-2" value="instantiateClass()" style="html=1;whiteSpace=wrap;fontSize=20;fillColor=#dae8fc;strokeColor=#6c8ebf;strokeWidth=1;" vertex="1" parent="1">
          <mxGeometry x="2335" y="564" width="330" height="40" as="geometry" />
        </mxCell>
        <mxCell id="2h2Sp6AkXZJmoCBJIqNE-3" value="" style="endArrow=classic;html=1;rounded=0;exitX=1;exitY=0.5;exitDx=0;exitDy=0;" edge="1" parent="1" source="b81MjtMypsDZj9TweXg5-26" target="2h2Sp6AkXZJmoCBJIqNE-2">
          <mxGeometry width="50" height="50" relative="1" as="geometry">
            <mxPoint x="2260" y="770" as="sourcePoint" />
            <mxPoint x="2310" y="720" as="targetPoint" />
          </mxGeometry>
        </mxCell>
        <mxCell id="2h2Sp6AkXZJmoCBJIqNE-4" value="java.lang.reflect.Constructor" style="shape=umlLifeline;perimeter=lifelinePerimeter;whiteSpace=wrap;html=1;container=1;dropTarget=0;collapsible=0;recursiveResize=0;outlineConnect=0;portConstraint=eastwest;newEdgeStyle={&quot;curved&quot;:0,&quot;rounded&quot;:0};fontSize=20;fillColor=#dae8fc;strokeColor=#6c8ebf;strokeWidth=2;" vertex="1" parent="1">
          <mxGeometry x="2770" y="78" width="380" height="622" as="geometry" />
        </mxCell>
        <mxCell id="2h2Sp6AkXZJmoCBJIqNE-5" value="newInstance()：无参或有参" style="html=1;whiteSpace=wrap;fontSize=20;fillColor=#dae8fc;strokeColor=#6c8ebf;strokeWidth=1;" vertex="1" parent="1">
          <mxGeometry x="2780" y="564" width="330" height="40" as="geometry" />
        </mxCell>
        <mxCell id="2h2Sp6AkXZJmoCBJIqNE-6" value="" style="endArrow=classic;html=1;rounded=0;exitX=1;exitY=0.5;exitDx=0;exitDy=0;entryX=0;entryY=0.5;entryDx=0;entryDy=0;" edge="1" parent="1" source="2h2Sp6AkXZJmoCBJIqNE-2" target="2h2Sp6AkXZJmoCBJIqNE-5">
          <mxGeometry width="50" height="50" relative="1" as="geometry">
            <mxPoint x="2780" y="830" as="sourcePoint" />
            <mxPoint x="2830" y="780" as="targetPoint" />
          </mxGeometry>
        </mxCell>
      </root>
    </mxGraphModel>
  </diagram>
</mxfile>
